#tb 0: 1001/30000
#media_type 0: video
#codec_id 0: rawvideo
#dimensions 0: 128x128
#sar 0: 4/3
0,          0,          0,        1,    24576, 0xcd6a7315
0,          1,          1,        1,    24576, 0x55b353d9
0,          2,          2,        1,    24576, 0xf3b94bed
0,          3,          3,        1,    24576, 0x6c4035de
0,          4,          4,        1,    24576, 0xb49e10db
